HIERARCHY
ROOT Hips
{
	OFFSET 0.00000 0.00000 0.00000
	CHANNELS 6 Xposition Yposition Zposition Zrotation Yrotation Xrotation 
	JOINT LHipJoint
	{
		OFFSET 0 0 0
		CHANNELS 3 Zrotation Yrotation Xrotation
		JOINT LeftUpLeg
		{
			OFFSET 1.85742 -1.74412 1.01653
			CHANNELS 3 Zrotation Yrotation Xrotation
			JOINT LeftLeg
			{
				OFFSET 2.54803 -7.00067 0.00000
				CHANNELS 3 Zrotation Yrotation Xrotation
				JOINT LeftFoot
				{
					OFFSET 2.51202 -6.90173 0.00000
					CHANNELS 3 Zrotation Yrotation Xrotation
					JOINT LeftToeBase
					{
						OFFSET 0.17547 -0.48209 1.64281
						CHANNELS 3 Zrotation Yrotation Xrotation
						End Site
						{
							OFFSET 0.00000 -0.00000 0.86587
						}
					}
				}
			}
		}
	}
	JOINT RHipJoint
	{
		OFFSET 0 0 0
		CHANNELS 3 Zrotation Yrotation Xrotation
		JOINT RightUpLeg
		{
			OFFSET -1.95533 -1.74413 1.01654
			CHANNELS 3 Zrotation Yrotation Xrotation
			JOINT RightLeg
			{
				OFFSET -2.49465 -6.85400 0.00000
				CHANNELS 3 Zrotation Yrotation Xrotation
				JOINT RightFoot
				{
					OFFSET -2.54783 -7.00010 0.00000
					CHANNELS 3 Zrotation Yrotation Xrotation
					JOINT RightToeBase
					{
						OFFSET -0.18513 -0.50864 1.69288
						CHANNELS 3 Zrotation Yrotation Xrotation
						End Site
						{
							OFFSET -0.00000 -0.00000 0.89242
						}
					}
				}
			}
		}
	}
	JOINT LowerBack
	{
		OFFSET 0 0 0
		CHANNELS 3 Zrotation Yrotation Xrotation
		JOINT Spine
		{
			OFFSET 0.02173 2.16290 -0.15998
			CHANNELS 3 Zrotation Yrotation Xrotation
			JOINT Spine1
			{
				OFFSET 0.00940 2.17323 -0.00467
				CHANNELS 3 Zrotation Yrotation Xrotation
				JOINT Neck
				{
					OFFSET 0 0 0
					CHANNELS 3 Zrotation Yrotation Xrotation
					JOINT Neck1
					{
						OFFSET 0.01475 1.85823 0.31113
						CHANNELS 3 Zrotation Yrotation Xrotation
						JOINT Head
						{
							OFFSET 0.01902 1.88783 -0.37187
							CHANNELS 3 Zrotation Yrotation Xrotation
							End Site
							{
								OFFSET 0.00489 1.93211 -0.16169
							}
						}
					}
				}
				JOINT LeftShoulder
				{
					OFFSET 0 0 0
					CHANNELS 3 Zrotation Yrotation Xrotation
					JOINT LeftArm
					{
						OFFSET 3.34199 1.32384 -0.07862
						CHANNELS 3 Zrotation Yrotation Xrotation
						JOINT LeftForeArm
						{
							OFFSET 5.27950 -0.00000 0.00000
							CHANNELS 3 Zrotation Yrotation Xrotation
							JOINT LeftHand
							{
								OFFSET 3.53504 -0.00000 0.00000
								CHANNELS 3 Zrotation Yrotation Xrotation
								JOINT LeftFingerBase
								{
									OFFSET 0 0 0
									CHANNELS 3 Zrotation Yrotation Xrotation
									JOINT LeftHandIndex1
									{
										OFFSET 0.66795 -0.00000 0.00000
										CHANNELS 3 Zrotation Yrotation Xrotation
										End Site
										{
											OFFSET 0.53852 -0.00000 0.00000
										}
									}
								}
								JOINT LThumb
								{
									OFFSET 0 0 0
									CHANNELS 3 Zrotation Yrotation Xrotation
									End Site
									{
										OFFSET 0.54674 -0.00000 0.54674
									}
								}
							}
						}
					}
				}
				JOINT RightShoulder
				{
					OFFSET 0 0 0
					CHANNELS 3 Zrotation Yrotation Xrotation
					JOINT RightArm
					{
						OFFSET -3.16149 1.45719 -0.50507
						CHANNELS 3 Zrotation Yrotation Xrotation
						JOINT RightForeArm
						{
							OFFSET -5.25035 -0.00000 0.00000
							CHANNELS 3 Zrotation Yrotation Xrotation
							JOINT RightHand
							{
								OFFSET -3.58884 -0.00000 0.00000
								CHANNELS 3 Zrotation Yrotation Xrotation
								JOINT RightFingerBase
								{
									OFFSET 0 0 0
									CHANNELS 3 Zrotation Yrotation Xrotation
									JOINT RightHandIndex1
									{
										OFFSET -0.77924 -0.00000 0.00000
										CHANNELS 3 Zrotation Yrotation Xrotation
										End Site
										{
											OFFSET -0.62824 -0.00000 0.00000
										}
									}
								}
								JOINT RThumb
								{
									OFFSET 0 0 0
									CHANNELS 3 Zrotation Yrotation Xrotation
									End Site
									{
										OFFSET -0.63783 -0.00000 0.63783
									}
								}
							}
						}
					}
				}
			}
		}
	}
}
MOTION
Frames: 9
Frame Time: 0.027027
0.00 0.00 0.00 355.1710 -34.6702 7.7761 0.0000 0.0000 0.0000 -7.0672 -22.2305 -30.8301 2.0670 9.0043 25.8089 0.3469 5.6956 -14.6742 4.5532 -12.8622 -38.8548 0.0000 0.0000 0.0000 30.8759 1.7965 16.8039 0.0000 -0.0000 0.0000 0.6253 18.5828 -6.4535 -1.1221 -6.7288 18.9144 3.2608 1.4253 1.8820 1.4705 1.9908 -0.3092 -0.3768 0.9723 -1.3134 -4.4384 -4.5184 -21.2075 6.7070 -8.1361 35.2911 2.0409 -3.0876 16.8791 -0.0000 0.0000 0.0000 -82.4902 0.2718 42.8404 125.5529 -54.6389 -90.2354 -0.0000 0.0000 -24.7544 60.3662 61.3872 57.0569 -7.1250 0.0000 -0.0000 -174.7762 -75.0805 176.2950 -0.0000 0.0000 0.0000 82.4520 6.9091 61.3222 -84.3986 59.8811 -55.1510 0.0000 -0.0000 -28.6218 -50.0698 18.7725 -21.0303 7.1250 -0.0000 -0.0000 -13.5172 -2.7356 -13.2354
0.00 0.00 0.00 354.1250 -39.1405 7.2682 0.0000 0.0000 0.0000 -9.2688 -15.8502 -28.4693 2.8122 10.3847 30.2316 0.0319 3.4040 -6.1838 1.9373 -8.7343 -24.9675 0.0000 0.0000 0.0000 29.2592 -2.4814 14.8872 -0.3432 -3.7644 10.4148 1.2240 19.6380 2.6305 -1.2153 -6.9929 19.6945 1.7858 1.5624 2.5207 0.6197 2.1456 -0.1877 -0.4464 1.0583 -1.5628 -3.0229 -3.6200 -21.3594 7.5396 -7.8074 35.8168 2.2445 -2.6523 17.1591 0.0000 -0.0000 0.0000 -82.2710 0.1419 44.1806 119.7540 -56.3751 -85.4542 -0.0000 0.0000 -25.1814 59.9339 62.7781 56.9362 -7.1250 0.0000 -0.0000 -171.7467 -74.3839 174.2636 0.0000 -0.0000 0.0000 83.5663 5.5024 61.4821 -77.2672 59.3784 -48.9961 0.0000 -0.0000 -28.2240 -53.2222 20.3814 -24.9816 7.1250 -0.0000 -0.0000 -14.8882 0.9146 -15.6590
0.00 0.00 0.00 354.9330 -42.7957 6.6759 0.0000 0.0000 0.0000 -11.4866 -11.1847 -25.0657 2.5240 9.8815 28.5938 0.1088 2.7824 -7.8993 1.9887 -8.8425 -25.3040 0.0000 0.0000 0.0000 26.0875 -2.1632 4.0591 -2.9610 -10.6317 31.0476 0.9639 17.7696 12.0038 -0.6906 -5.3126 14.8023 0.4032 2.0044 3.2124 -0.2762 2.6790 0.3674 -0.6246 1.3341 -1.3904 -2.3378 -3.2370 -22.0838 7.6134 -7.6546 36.5184 2.2044 -2.4629 17.6863 0.0000 0.0000 0.0000 -82.2786 -1.3618 43.5497 113.4443 -57.8178 -80.1546 -0.0000 0.0000 -25.1700 55.5526 62.7520 52.3482 -7.1250 0.0000 -0.0000 -167.4863 -76.0626 170.8392 0.0000 0.0000 0.0000 84.2370 5.6920 62.6228 -71.5268 58.6704 -44.0732 0.0000 -0.0000 -28.6558 -57.1482 22.3821 -30.5273 7.1250 -0.0000 -0.0000 -16.4784 5.8895 -18.8425
0.00 0.00 0.00 359.4570 -46.0834 3.8479 0.0000 0.0000 0.0000 -17.1405 -8.0286 -17.0467 1.2607 7.1176 20.0641 -0.0139 5.9064 -8.0234 1.7701 -8.3699 -23.8434 0.0000 0.0000 0.0000 18.4425 -3.4997 -12.4319 -8.7683 -16.6563 55.2852 0.4122 11.3766 2.7118 -3.5305 11.5080 -34.0128 -2.4442 1.5651 5.9870 -1.4191 1.8658 0.5351 -0.2465 0.9444 -2.8352 -1.1988 -2.0840 -22.1442 5.6747 -5.6417 37.1890 1.5576 -1.7738 17.7472 -0.0000 -0.0000 0.0000 -81.4074 -3.1986 42.7869 105.2311 -59.1050 -73.1509 -0.0000 0.0000 -25.2221 44.1864 61.6185 40.5359 -7.1250 0.0000 -0.0000 -149.7041 -80.2081 155.0090 -0.0000 -0.0000 0.0000 83.8210 6.1749 66.6400 -66.8423 57.8734 -40.0881 0.0000 -0.0000 -30.6483 -62.5025 24.1622 -38.1809 7.1250 -0.0000 -0.0000 -18.7974 12.1770 -23.4886
0.00 0.00 0.00 358.8290 -47.0991 5.4063 0.0000 0.0000 0.0000 -17.3187 -7.7117 -14.3118 1.2518 7.0934 19.9923 0.1337 6.4150 -12.0036 1.4739 -7.6714 -21.7204 0.0000 0.0000 0.0000 18.0659 -5.1961 -27.2230 -9.5723 -17.1622 58.0492 -0.2798 3.2728 -9.4016 -0.7087 5.3805 -14.9970 -2.4717 0.8553 7.6414 -0.4999 0.9032 1.4408 0.7830 0.4603 -2.8242 -0.9136 -1.6210 -22.0722 5.1356 -4.8533 37.1815 1.4253 -1.5037 17.6412 -0.0000 0.0000 0.0000 -79.8613 -11.2082 45.0058 86.9935 -59.9658 -57.3966 -0.0000 0.0000 -25.1992 42.3709 61.7989 38.7962 -7.1250 0.0000 -0.0000 -145.4579 -80.3569 151.3127 -0.0000 0.0000 0.0000 84.2606 7.6293 65.5042 -63.9565 57.2752 -37.6520 0.0000 -0.0000 -30.9563 -60.2824 23.3015 -34.7224 7.1250 -0.0000 -0.0000 -17.8818 9.2893 -21.5220
0.00 0.00 0.00 358.3930 -48.2105 7.4027 0.0000 0.0000 0.0000 -16.7747 -10.3109 -14.4342 1.6920 8.1928 23.3012 0.2625 8.6620 -16.4108 1.8044 -8.4461 -24.0776 0.0000 0.0000 0.0000 18.1780 -1.5079 -31.8653 -5.8748 -14.3059 44.4773 -0.4751 3.0917 -12.3273 -0.6756 5.2557 -14.6393 -2.3697 0.8417 8.2103 0.2697 0.9018 1.7968 1.5167 0.4554 -2.7832 -0.7464 -1.4405 -22.0456 4.8820 -4.5553 37.1598 1.3420 -1.3982 17.5901 0.0000 0.0000 0.0000 -80.1517 -16.5280 43.8401 75.7428 -59.2178 -47.6853 -0.0000 0.0000 -23.5769 30.8726 63.8048 28.2108 -7.1250 0.0000 -0.0000 -122.6981 -79.1006 132.4491 0.0000 0.0000 0.0000 84.0393 9.2613 66.4381 -61.3558 56.6605 -35.4715 0.0000 -0.0000 -30.9674 -60.0073 24.0765 -35.2530 7.1250 -0.0000 -0.0000 -17.5027 10.1359 -21.2328
0.00 0.00 0.00 371.6170 -31.7649 17.9381 0.0000 0.0000 0.0000 -11.0441 -23.9463 -16.5349 0.6546 5.1753 14.4091 -0.5899 13.5475 -3.3524 1.8672 -8.5839 -24.5021 0.0000 0.0000 0.0000 8.3795 8.7994 -40.1408 -1.7222 -8.2617 23.5117 0.3073 -10.9129 -9.2012 -0.0001 0.0513 -0.1409 4.6393 -3.5166 17.3789 3.8236 -3.6989 5.4430 2.1893 -1.8649 -3.9091 0.4603 0.8353 -22.0293 1.1501 0.5029 27.1185 0.4408 0.3874 12.6977 0.0000 -0.0000 0.0000 -84.4472 -52.3784 57.5731 21.2922 -32.1678 -6.2047 -0.0000 0.0000 -20.1031 7.0104 56.3328 5.8435 -7.1250 0.0000 -0.0000 -80.7543 74.5225 -64.5678 0.0000 -0.0000 0.0000 81.1315 24.9953 67.0076 -39.3532 47.6820 -17.9595 0.0000 -0.0000 -30.2875 -55.8205 22.7775 -29.6882 7.1250 -0.0000 -0.0000 -15.6472 5.6027 -17.7461
0.00 0.00 0.00 370.3790 -24.1409 15.9628 0.0000 0.0000 0.0000 -13.3273 -17.1354 -15.9557 0.7037 5.3616 14.9430 -0.9079 16.9821 -2.4253 1.0200 -6.4250 -18.0226 0.0000 0.0000 0.0000 9.8550 15.0519 -29.4958 -1.5115 -7.7644 22.0006 0.9948 -21.5306 -21.7975 -1.6247 -8.0363 22.8244 5.6665 -3.0983 17.2536 4.2832 -2.9631 5.5706 1.9386 -1.4962 -3.7277 4.0028 3.6731 -22.5831 -1.3356 4.0145 31.1550 -0.4843 1.9409 14.6795 -0.0000 0.0000 0.0000 -93.2513 -45.5965 67.2596 22.6840 -33.7414 -6.9620 -0.0000 0.0000 -4.0149 52.7910 52.1607 46.1260 -7.1250 0.0000 -0.0000 158.9853 -84.8879 -160.8936 -0.0000 0.0000 0.0000 80.8876 24.1331 63.3914 -34.0430 44.1165 -14.1430 0.0000 -0.0000 -23.2964 -41.3451 13.0501 -11.2377 7.1250 -0.0000 -0.0000 -9.4106 -12.9908 -7.1536
0.00 0.00 0.00 368.9370 -21.2902 14.4622 0.0000 0.0000 0.0000 -17.2835 -6.7010 -19.1849 0.9484 6.2021 17.3721 -0.7862 15.4723 -5.8203 0.3858 -3.9889 -11.0455 0.0000 0.0000 0.0000 8.8840 26.7331 -22.4561 -1.6349 -8.0602 22.8972 0.6378 -29.0128 -37.4538 -3.9299 -12.0666 35.9679 6.1818 -2.6658 15.1570 3.4280 -2.5006 5.0453 0.5665 -1.2544 -3.2277 4.9766 3.9822 -22.6424 -0.1894 3.6896 31.0259 -0.2385 2.0926 14.6293 0.0000 -0.0000 0.0000 -91.6224 -30.7108 66.7673 39.2182 -47.5998 -17.8597 -0.0000 0.0000 -10.3157 38.3625 49.7232 31.1269 -7.1250 0.0000 -0.0000 -28.8839 85.8839 -26.8333 0.0000 -0.0000 0.0000 82.0017 21.9442 59.0376 -29.3266 40.3091 -10.9713 0.0000 -0.0000 -22.5151 -38.6486 11.9457 -9.3985 7.1250 -0.0000 -0.0000 -7.8191 -14.9195 -5.5956
